<?xml version="1.0" encoding="UTF-8" standalone="no"?><svg xmlns="http://www.w3.org/2000/svg" xmlns:xlink="http://www.w3.org/1999/xlink" fill="#000000" height="245.2" preserveAspectRatio="xMidYMid meet" version="1" viewBox="76.1 133.4 345.5 245.2" width="345.5" zoomAndPan="magnify"><g><g fill="#ffbc42"><g id="change1_5"><path d="M126.9,319.6c-1.1,0.2-2.1-0.8-3.1-2.9c-0.3-0.8-0.8-2-1.4-3.5c-0.6-1.5-1.4-3.4-2.3-5.8l0.1-0.2 c-4.6-11.1-11.4-27.9-20.2-50.2c-0.9-2.6-2.2-6-3.8-10.2c-1.6-4.2-3.6-9.1-5.8-14.9L86,224c-0.4-1.4-1-3.2-1.7-5.3 c-0.7-2.1-1.5-4.6-2.5-7.4l-0.4,0.1c-0.2-0.3-0.4-0.9-0.5-1.6c-0.3-1.6-0.2-2.9,0.4-4.1c0.6-1.1,1.3-1.8,2.1-2 c1.1-0.2,2,0.5,2.7,2.1l9.3,21.5l9.9,25.3c1.3,3,2.9,7.1,4.8,12.2c2,5.1,4.3,11.3,7.1,18.5c0.9,2.7,2.1,5.7,3.5,9.1 c1.4,3.4,3,7.1,4.7,11.1l0.3,1.6c0.6-1.1,1-2.7,1.1-4.8l4.7-12.9c0.9-2.3,1.7-5.2,2.4-8.7c0.7-3.5,1.5-7.5,2.3-11.9 c0.2-2.2,0.5-5,1-8.3c0.5-3.4,1.1-7.4,1.7-12.1c-0.9-2.3-2.1-5.4-3.5-9.2c-1.5-3.8-3.3-8.3-5.4-13.7l-4.7-7.9l-4.8-13.6 c-0.5-1.5-0.4-3,0-4.4c0.5-1.4,1.2-2.2,2.3-2.4c1.1-0.2,2,0.5,2.7,2.1c1.6,4,3.2,7.7,4.8,11.4c1.6,3.6,3,7.1,4.4,10.3l6.3,15.5 l3.9-14.8l3.8-15l3.9-14.8c0.4-1.8,1.1-2.9,2.2-3.1c1.7-0.4,2.8,0.8,3.4,3.4c0.2,1.1,0.2,2.2-0.1,3.2l-2.5,10.7 c-0.5,1.9-1.1,4.4-1.9,7.7c-0.8,3.3-1.7,7.1-2.9,11.7l-4.9,23.5L157,275l8.1,20.2l0.3,1.3l1-4c0.3-1.5,0.9-3.3,1.6-5.4 c0.7-2.2,1.6-4.8,2.6-7.7c0.6-2.1,1.3-4.9,2.3-8.4c1-3.5,2-7.7,3.1-12.6c0.2-2.7,0.5-6.1,0.9-10.3c0.4-4.2,1.1-9.1,1.9-14.7 c0.7-3.4,2.5-10.7,5.4-21.8c0.6-2,1.3-4.6,2.2-7.8c0.9-3.2,1.9-7,3-11.4l2.5-10.6c0.4-1.8,1.1-2.9,2.2-3.1 c1.7-0.4,2.8,0.8,3.4,3.4c0.2,1.1,0.2,2.2-0.1,3.2c-0.2,1.4-0.5,3-1,4.7c-0.5,1.7-1,3.7-1.5,5.8l-4.9,19.6 c-1,5.9-2.2,12.7-3.7,20.3c-1.4,7.7-3,16.2-4.8,25.5c-0.5,2.8-1.3,6-2.2,9.7c-0.9,3.7-2,7.9-3.3,12.6c-0.8,2.7-1.9,6.1-3.1,10.3 c-1.3,4.2-2.7,9-4.3,14.5c-0.4,1.5-1.1,2.3-2.1,2.5c-1.3,0.3-2.4-0.6-3.2-2.7l-0.2,0c-0.3-0.8-0.7-2-1.3-3.4 c-0.6-1.5-1.2-3.2-2.1-5.3l-7.9-20.5l-7.8-19.9l-2.1,10.5c-0.7,3.7-1.5,7.4-2.4,11.1c-0.9,3.7-1.8,7.4-2.8,11.2 c-1.9,5.4-4.5,13.7-7.8,24.9C128.6,318.5,127.9,319.4,126.9,319.6z"/><path d="M126.6,324c-2,0-4.7-1-6.8-5.6l-0.1-0.3c-0.3-0.8-0.7-1.9-1.3-3.3c-0.7-1.6-1.4-3.5-2.3-5.9l-0.8-2.1 l0.1-0.1c-4.6-11.1-11.1-27.3-19.4-48.1c-1-2.7-2.2-6-3.8-10.2c-1.6-4.1-3.5-9-5.7-14.6l-4.7-8.6c-0.4-1.4-1-3.1-1.7-5.2 c-0.5-1.6-1.1-3.3-1.8-5.2l-0.7-1.3c-0.4-0.8-0.8-1.7-1-2.9c-0.5-2.6-0.3-4.9,0.8-7c1.5-2.9,3.6-3.9,5.2-4.3 c1.2-0.3,5.3-0.7,7.6,4.6l9.3,21.5l9.9,25.5c1.2,2.9,2.9,7.1,4.9,12.2c2,5.1,4.3,11.3,7.1,18.5c1,2.8,2.1,5.7,3.5,9 c0.2,0.4,0.3,0.7,0.5,1.1l2.1-5.8c0.8-2.2,1.6-4.9,2.2-8.1c0.7-3.4,1.4-7.3,2.2-11.6c0.2-2.2,0.5-5,1-8.4c0.4-3.1,1-6.8,1.5-11 c-0.8-2.2-1.9-4.9-3.1-8.1c-1.5-3.7-3.2-8.2-5.3-13.4l-4.9-8.4l-4.8-13.6c-0.8-2.6-0.8-5,0-7.3c1.3-3.8,4.1-4.9,5.6-5.3 c1.2-0.3,5.3-0.7,7.6,4.6c1.6,4.1,3.2,7.8,4.8,11.4c1.6,3.7,3.1,7.2,4.4,10.4l1.3,3.2l8.2-31.8c0.9-4.6,3.9-6,5.5-6.3 c2.3-0.5,4.5,0.2,6.2,1.8c1.2,1.2,2,2.8,2.4,5c0.4,1.7,0.3,3.5-0.1,5.2l-2.4,10.6c-0.5,2-1.1,4.5-1.9,7.7 c-0.8,3.3-1.8,7.2-3,11.8l-4.5,22l14.3,35.8l1.6-4.6c0.6-2.1,1.3-4.9,2.3-8.3c0.9-3.3,1.9-7.2,3-12c0.2-2.7,0.5-6.1,0.9-10.1 c0.5-4.3,1.1-9.3,1.9-14.9c0.7-3.7,2.5-10.9,5.5-22.2c0.6-2.1,1.3-4.7,2.2-7.9c0.9-3.2,1.9-6.9,3-11.3l2.5-10.5 c1-4.7,3.9-6.1,5.6-6.4c1.8-0.4,3.5-0.1,5,0.9c1.8,1.2,3,3.1,3.6,6c0.4,1.7,0.3,3.3-0.1,5c-0.2,1.5-0.6,3.2-1.1,5l-1.5,5.8 l-4.9,19.4c-1,5.9-2.2,12.6-3.6,20.2c-1.4,7.7-3,16.2-4.8,25.6c-0.6,2.9-1.3,6.2-2.2,9.9c-0.9,3.8-2,8-3.3,12.7l-3.2,10.4 c-1.3,4.2-2.7,9-4.3,14.5c-1.2,4.1-3.9,5.3-5.4,5.6c-0.5,0.1-1.4,0.2-2.4,0l-0.1,0.3l-0.1-0.4c-1.1-0.2-2.5-0.8-3.6-2.1l-0.7,0.1 l-1.5-3.5c-0.3-0.8-0.7-1.9-1.3-3.3l-0.2-0.5c-0.5-1.4-1.1-3-1.9-4.8l-10.3-26.5c-0.5,2.3-1,4.7-1.6,7.1 c-0.9,3.8-1.8,7.5-2.8,11.3l-0.1,0.3c-1.9,5.4-4.5,13.7-7.7,24.7c-1.1,4.2-3.9,5.4-5.4,5.8C127.5,324,127,324,126.6,324z M167.7,307.3L167.7,307.3L167.7,307.3z"/></g><g id="change1_4"><path d="M222.3,294c-3,0.6-5-0.4-5.9-3.1c-0.6-1.6-1.2-3.4-1.7-5.4c-0.5-2-1.1-4.1-1.5-6.4c-1.8-8.6-3.2-18.1-4-28.6 c-0.9-10.5-1.4-21.9-1.4-34.2c0.1-7.5,0.1-13.4,0.1-18c0-4.5,0-7.5,0.1-8.9c0.5-9.4,2.1-16.1,4.8-20.1c1.1-1.8,2.7-2.8,4.6-3.2 c2.9-0.6,5.8,0.4,8.8,3.1c3,2.7,5,6.5,6,11.4c0.7,3.3,0.9,6.8,0.5,10.5c-0.3,2.7-1.1,6.1-2.5,10.3c-1.3,4.1-3.2,9-5.7,14.7 c-5,11.4-7.6,18.5-7.8,21.3l-0.3,11.2c0,2.3,0.1,4.5,0.3,6.5c0.3,2.1,0.6,4.1,1,6c0.2,0.8,0.4,1.7,0.5,2.4 c0.2,0.8,0.4,1.6,0.7,2.4c1,3.2,2.4,4.6,3.9,4.3c1-0.2,1.8-0.8,2.6-1.9l7.8-9.8c4.1-5,6.9-7.7,8.3-8c2.5-0.5,4.3,1.7,5.4,6.6 c2.4,11.6,5.8,17.2,10,16.8c0.5,0,1,0,1.5-0.1c0.5-0.1,1-0.2,1.4-0.3c6.3-1.3,10.5-4.3,12.7-8.9c0.5-1,1.1-1.6,1.7-1.7 c0.7-0.2,1.2,0.4,1.5,1.6c0.2,0.8,0,1.8-0.5,2.9c-1.1,2-3.5,4.8-7.1,8.3c-4.2,3.9-7.8,6.2-10.9,6.8c-1.1,0.2-2,0.2-2.8,0 l-0.4,0.1c-2.7-0.9-5.5-4.4-8.2-10.4c-2.4-5.3-4.7-7.5-6.9-6.7c-4.3,2.9-7.3,6.6-9,11c-0.9,1.9-1.9,6.1-3.1,12.4 C226.2,291.8,224.7,293.5,222.3,294z M213.1,194.6l3,26.6c2.2-2.6,4.1-5.4,5.5-8.3c1.5-2.9,2.7-5.8,3.7-8.8 c0.5-1.7,1-3.9,1.5-6.6c0.5-2.6,1-5.8,1.5-9.4c0.3-2,0.3-4-0.1-6c-0.7-3.4-2.2-6.1-4.6-8.1c-2.3-2-4.4-2.5-6.2-1.5 C214,174.4,212.5,181.8,213.1,194.6z"/><path d="M220.7,298.6c-4,0-7.1-2.2-8.5-6.2c-0.6-1.7-1.2-3.6-1.8-5.7c-0.6-2-1.1-4.3-1.6-6.6 c-1.8-8.7-3.2-18.5-4.1-29.1c-0.9-10.6-1.4-22.2-1.5-34.6c0.1-7.5,0.1-13.5,0.1-18c0-4.6,0-7.6,0.1-9.2 c0.6-10.4,2.4-17.7,5.6-22.3c1.7-2.7,4.3-4.4,7.3-5.1c3-0.6,7.6-0.4,12.6,4.1c3.7,3.3,6.1,7.9,7.4,13.8c0.8,3.7,1,7.7,0.6,11.8 c-0.4,3.1-1.2,6.7-2.7,11.2c-1.4,4.2-3.3,9.3-5.8,15.1c-6.7,15.2-7.4,19-7.4,19.8l-0.3,11.1c0,2,0.1,4,0.3,5.9 c0.2,2,0.5,3.8,0.9,5.7l0.5,2.4c0.1,0.6,0.3,1.1,0.5,1.7l6.8-8.5c6-7.3,8.6-9.1,10.9-9.6c2.5-0.5,8.4-0.6,10.6,10 c2.5,12.1,5.3,13.3,5.3,13.3l0.3,0l0.2,0c0.2,0,0.3,0,0.4,0l1.4-0.3c4.9-1,8-3.2,9.6-6.5c1.3-2.4,2.9-3.7,4.8-4.1 c2.6-0.5,5.8,0.8,6.7,5c0.4,1.8,0.1,3.7-0.8,5.7c-1.4,2.7-4,5.7-8.1,9.6c-4.9,4.6-9.2,7.2-13,8c-1.3,0.3-2.5,0.3-3.7,0.2 l-0.7,0.2l-1.2-0.4c-4-1.4-7.4-5.4-10.8-12.7c-0.9-1.9-1.6-3.1-2-3.7c-2.7,2.2-4.6,4.7-5.8,7.7c-0.5,1.1-1.4,3.8-2.8,11.6 c-0.9,4.6-3.7,7.5-7.9,8.4C222.3,298.5,221.5,298.6,220.7,298.6z M216,270.3c0.5,2.7,0.9,5.3,1.5,7.8c0.5,2.2,1,4.2,1.5,6.1 c0.5,1.8,1,3.5,1.6,5.1c0.1,0.2,0.1,0.3,0.2,0.4c0.1,0,0.3,0,0.7-0.1h0c0.4-0.1,0.8-0.2,1-1.5c1.7-8.9,2.7-11.8,3.3-13.3 c0.2-0.5,0.4-1,0.6-1.5c-0.8,0.5-1.8,0.9-2.7,1.1C222.1,274.9,218.6,275,216,270.3z M255.5,278.4c0,0,0,0,0.2,0 C255.6,278.4,255.5,278.4,255.5,278.4L255.5,278.4L255.5,278.4z M241.9,255.6c-0.9,0.9-2.6,2.5-5.2,5.8l-0.9,1.2 c0.2-0.2,0.5-0.3,0.7-0.5l0.9-0.5c2.2-0.8,4.3-0.7,6.2,0.5c-0.4-1.6-0.7-2.9-0.9-4C242.3,256.9,242.1,256.1,241.9,255.6z M241.3,254.6L241.3,254.6L241.3,254.6z M212.2,226.8c0.1,2.8,0.2,5.5,0.3,8.1c0.2-1.1,0.6-2.4,1.2-4.3l-0.9,1.1L212.2,226.8z M217.5,194.2L219,208c0.8-1.8,1.5-3.6,2.1-5.4c0.4-1.5,0.9-3.5,1.4-6c0.5-2.6,1-5.6,1.5-9.1c0.3-1.6,0.2-3-0.1-4.5 c-0.5-2.4-1.5-4.3-3.1-5.7c-0.6-0.5-1-0.8-1.2-0.9C219,177.1,216.9,180.4,217.5,194.2z"/></g><g id="change1_6"><path d="M322.2,273.6c-0.6,0.1-1.2,0-1.8-0.4c-4-2.7-6.7-7.3-8.2-13.8c-0.1-0.5-0.2-1.1-0.2-1.8 c0-0.7-0.1-1.5-0.3-2.3l-0.6-3.8L311,251c-0.5-2.2-1.4-2.8-2.9-1.9c-2.1,2.2-4.8,5.3-8.1,9.4c-3.4,4.1-7.4,9-12.1,14.8 c-1.9,2.8-4.8,4.6-8.5,5.4c-2.2,0.5-4.3-0.3-6.3-2.4c-2-2-3.1-4.2-3.2-6.4c-0.3-3.2,0.2-6.9,1.6-11c1.4-4.1,3.3-8.4,5.7-12.7 c2.4-4.4,5.2-8.3,8.3-12c3.1-3.6,6.2-6.4,9.3-8.3c1.2-0.8,2.4-1.4,3.6-1.9c1.2-0.5,2.3-0.9,3.5-1.1c5.2-1.1,8.2,0.2,8.9,3.8 c0.3,1.2-0.1,1.9-1.1,2.1c-0.4,0.1-0.7,0.1-1.1,0.1c-0.4,0-0.8-0.1-1.2-0.2c-2.6-1.4-4.7-1.8-6.6-1.5c-1.8,0.4-4.2,2-7.3,4.9 c-2.4,2.3-4.7,5-6.8,8.1c-2.1,3.1-4.1,6.5-5.8,10.1c-1.7,3.5-2.9,6.6-3.7,9.2c-0.8,2.6-1.2,4.9-1,6.7c0,0.5,0,1.1,0.2,1.8 c0.4,1.9,1.4,2.7,3,2.4c1.9-0.4,5.2-2.9,9.8-7.5c10.9-11.1,18.1-20.5,21.7-28c0.9-1.8,1.5-4.2,1.9-7c0.2-1.8,1.3-2.9,3.3-3.3 c2.2-0.5,3.5,0.5,4,2.9c0.4,1.9,0,4.5-1.2,7.8c-1,9.4-1.2,15.8-0.5,19.2c1.3,5.1,3.5,9,6.4,11.7c0.4,0.3,0.7,0.7,0.8,1.3 c0.2,1.1-0.1,2.3-0.9,3.7C324.1,272.7,323.2,273.4,322.2,273.6z"/><path d="M278.2,283.2c-2.4,0-5.3-0.8-8.2-3.8c-2.8-2.8-4.3-6-4.4-9.3c-0.3-3.6,0.3-7.9,1.9-12.6 c1.5-4.4,3.5-8.9,6.1-13.5c2.6-4.6,5.5-8.9,8.8-12.7c3.4-4,6.9-7.1,10.4-9.2c1.4-0.9,2.8-1.6,4.1-2.2c1.4-0.6,2.9-1.1,4.4-1.4 c6.3-1.3,9.8,0.4,11.8,2.5c0.7-0.4,1.5-0.6,2.4-0.8c2.9-0.6,5,0.3,6.1,1.1c1.6,1.1,2.6,2.9,3.1,5.2c0.6,2.7,0.2,5.9-1.2,9.7 c-1.2,10.7-0.9,15.3-0.5,17.3c1,4,2.7,7.1,4.9,9.2c1.2,0.9,2,2.2,2.4,3.8c0.5,2.2,0,4.6-1.5,6.9c-1.5,2.4-3.4,3.9-5.6,4.4h0 c-1.8,0.4-3.5,0-5.1-1c-5-3.4-8.4-8.9-10.1-16.5c-0.2-0.8-0.3-1.7-0.3-2.6c0-0.3-0.1-0.8-0.2-1.3c-1.2,1.4-2.6,3-4.1,4.8 c-3.3,4-7.3,8.9-12,14.6c-2.6,3.7-6.3,6-11.1,7C279.7,283.2,279,283.2,278.2,283.2z M302.3,231.5c-0.2,0-0.3,0-0.3,0 c-0.1,0-1.5,0.4-5.1,3.8c-2.2,2.1-4.3,4.5-6.2,7.4c-2,2.9-3.8,6.1-5.5,9.5c-1.6,3.3-2.7,6.2-3.5,8.6c-0.5,1.7-0.8,3-0.8,4 c1.2-0.9,2.9-2.4,5.4-4.9c10.5-10.7,17.5-19.7,20.8-26.8c-0.4-0.1-0.7-0.2-1.1-0.4l-0.4-0.2C303.9,231.7,302.8,231.5,302.3,231.5 z M310.6,244.5c0.3,0.1,0.6,0.2,0.8,0.3c0.9,0.4,1.7,1,2.3,1.7c0.1-2.4,0.3-5.1,0.6-8.3C313.3,240.3,312.1,242.3,310.6,244.5z"/></g><g id="change1_2"><path d="M356.7,275.5c-3,0.6-4.9-0.9-5.7-4.5c-3.8-18-6.6-37.4-8.3-58.2c-1.3,0-2.5,0.1-3.8,0.1 c-1.3,0.1-2.6,0.1-3.8,0.2c-3.5,0.2-5.4-0.4-5.7-1.8c-0.3-1.4,0.2-2.5,1.6-3.2l-0.2,0c-1.1,0.2-0.9,0.1,0.5-0.4 c1.4-0.5,3.2-1.1,5.5-1.8c2.2-0.7,4-1.2,5.4-1.5c-0.2-4.4,0.2-9.7,1.2-15.9c0.5-3.8,0.8-7,1.1-9.8c0.2-2.8,0.4-5,0.6-6.6 c0.1-2.5,1.4-4.1,3.9-4.6c1.1-0.2,1.6,0.2,1.6,1.4c-0.3,3.6-0.5,8.2-0.9,13.9c-0.3,5.7-0.5,12.4-0.7,20.1 c1.1-0.2,2.4-0.5,4.1-0.9c1.6-0.3,3.5-0.7,5.7-1c2.2-0.3,4.1-0.6,5.8-0.9c1.6-0.3,2.9-0.5,3.9-0.7c1.1-0.2,1.7,0.1,1.9,0.9 c0.2,0.7-0.1,1.6-0.9,2.6c-0.7,1-1.6,1.7-2.7,1.9c-1.4,0.3-3.6,1-6.4,2c-2.8,1-6.4,2.4-10.6,4.2c1.3,15.2,4.7,35.6,10,61 C360.1,273.8,359.1,275,356.7,275.5z"/><path d="M355.4,280c-2.4,0-4-0.9-5.1-1.7c-1.8-1.4-3-3.5-3.6-6.4c-3.6-16.9-6.2-35.2-8-54.5 c-1.2,0.1-2.4,0.1-3.6,0.1c-7.2,0.5-9.5-2.6-10-5.3c-0.4-1.8-0.1-3.6,0.7-5c0.3-1.3,1.4-2.6,4.1-3.6c1.4-0.5,3.3-1.1,5.6-1.8 c0.8-0.3,1.6-0.5,2.3-0.7c0.1-3.9,0.5-8.3,1.2-13.2c0.4-3.6,0.8-6.8,1-9.5c0.2-2.8,0.4-5,0.6-6.7c0.1-4.3,2.9-7.6,7.4-8.5 c2.5-0.5,4.2,0.4,4.9,1.1c0.8,0.6,2,2.1,2,4.7c-0.3,3.8-0.5,8.4-0.9,14.1c-0.2,4.2-0.4,9-0.6,14.4c1.4-0.3,2.9-0.5,4.6-0.8 c2.2-0.3,4.1-0.6,5.7-0.9c1.6-0.3,2.8-0.5,3.7-0.7c1.5-0.3,2.9-0.2,4.1,0.4c1.5,0.7,2.6,2.2,3,3.9c0.4,1.9-0.1,4-1.6,6.1 c-1.4,1.9-3.2,3.2-5.4,3.7c-0.8,0.2-2.5,0.6-5.8,1.8c-2.1,0.8-4.6,1.7-7.5,2.9c1.5,14.6,4.7,33.9,9.7,57.3c0.5,2.3,0,4.4-1.5,6 c-1.1,1.3-2.8,2.2-5,2.7C356.8,279.9,356,280,355.4,280z M345,208.3l-0.3,0.1L345,208.3L345,208.3z"/></g><g id="change1_3"><path d="M392,224.3c-2.4,0.5-3.9-0.7-4.6-3.8c-0.1-0.4-0.2-0.8-0.3-1.3c-0.1-0.5-0.2-1-0.2-1.7 c-0.1-1.7-0.1-3.3,0-4.6c0.1-1.3,0.1-2.3,0.2-2.8c0.4-3.5,1.2-6.1,2.4-7.8c1.2-1.7,2.6-3.1,4.2-4.3c1.6-1.2,3-2.7,4.2-4.6 c2-2.1,3.6-4.1,5-6.2c1.4-2.1,2.6-4,3.6-5.9c1.1-2.5,2-4.8,2.5-6.9c0.6-2.1,0.7-4.1,0.2-6c-1.7-7.8-4.6-13.6-8.8-17.3 c-4.2-3.7-9.2-5-15-3.7c-2.3,0.5-4.7,3.8-7.2,9.8c-0.1,0.7-0.3,1.8-0.6,3.5c-0.3,1.7-0.8,3.8-1.7,6.4c-0.6,0.9-1.2,1.4-1.9,1.5 c-1.2,0.3-2.3-0.2-3.3-1.5c-1-1.2-1.5-2.6-1.4-4c0.4-5.9,1.6-10.5,3.5-14c3.6-6.3,7.2-9.9,11-10.6c1.3-0.3,3-0.5,5.1-0.7 c2-0.2,5.1,0.4,9.2,1.8c8.8,2.9,14.9,12.2,18.2,27.9c0.7,5.1-0.8,11.5-4.5,18.9c-0.8,1.6-2.1,3.5-3.9,5.9c-1.8,2.4-4,5.1-6.6,8.2 c-0.7,0.7-1.7,1.6-2.8,2.9c-1.1,1.2-2.4,2.9-3.9,5c-0.5,0.9-0.7,1.6-0.9,2.2c-0.1,0.6-0.2,1.1-0.3,1.5c0,0.5,0.3,3,1,7.4 C394.8,222.4,393.9,223.9,392,224.3z M396.3,261c-3.5,0.7-5.9-2-7.1-8.3l0,0.2c-0.4-2.4-0.3-4.8,0.4-7.1c0.7-2.3,1.6-3.6,3-3.8 c3.5-0.7,5.7,1.9,6.6,8.1C400.2,256.7,399.2,260.4,396.3,261z"/><path d="M395.3,265.6c-1.7,0-3.3-0.5-4.7-1.4c-2.8-1.8-4.6-5.3-5.6-10.6h0c-0.5-3-0.3-6.1,0.5-8.9 c1.4-4.9,4.2-6.5,6.3-6.9c2.5-0.5,4.8-0.1,6.8,1.3c2.7,1.9,4.4,5.3,5.1,10.5c1.3,9.5-0.9,14.8-6.4,16 C396.6,265.5,395.9,265.6,395.3,265.6z M395.4,256.7C395.4,256.8,395.5,256.8,395.4,256.7L395.4,256.7 C395.4,256.7,395.4,256.7,395.4,256.7z M393.7,252.1c0.5,2.4,1,3.6,1.4,4.2c0.2-0.9,0.3-2.6-0.1-5.7c-0.3-1.9-0.7-3-1-3.7 c0,0,0,0.1,0,0.1C393.5,248.7,393.4,250.4,393.7,252.1z M394.4,245.8L394.4,245.8L394.4,245.8z M391.1,228.8 c-3.3,0-6.8-1.9-8-7.4l-0.3-1.3c-0.2-0.8-0.3-1.7-0.3-2.6c-0.1-1.6-0.1-3.4,0-4.9c0.1-1.3,0.1-2.2,0.2-2.7l0-0.3 c0.5-4.3,1.5-7.5,3.2-9.9c1.5-2.1,3.2-3.9,5.2-5.3c1.1-0.8,2.2-2,3.1-3.4l0.5-0.6c1.8-1.9,3.3-3.7,4.6-5.6 c1.3-1.9,2.4-3.7,3.3-5.3c1-2.2,1.7-4.3,2.2-6.1c0.4-1.4,0.4-2.7,0.2-3.9c-1.4-6.9-3.9-11.9-7.4-15c-3.2-2.8-6.7-3.7-11.1-2.7h0 c0.1,0-1.4,1-3.8,6.8c-0.1,0.7-0.3,1.7-0.5,3c-0.3,2-0.9,4.3-1.8,7.1l-0.2,0.5l-0.3,0.5c-1.5,2.3-3.4,3.2-4.7,3.4 c-1.7,0.3-4.9,0.4-7.7-3c-1.7-2.1-2.5-4.5-2.4-7c0.4-6.6,1.8-11.8,4-15.9c4.3-7.5,8.8-11.7,13.9-12.8c1.5-0.3,3.3-0.6,5.6-0.8 c2.7-0.2,6.2,0.4,11,2.1c10.3,3.4,17.4,13.9,21.1,31.2l0.1,0.3c0.8,6.1-0.8,13.1-4.9,21.5c-1,1.8-2.3,4-4.3,6.6 c-1.8,2.5-4.1,5.3-6.8,8.4l-0.4,0.4c-0.6,0.5-1.4,1.4-2.5,2.5c-0.9,1-2.1,2.5-3.4,4.3c-0.3,0.5-0.3,0.8-0.3,0.8 c-0.1,0.3-0.1,0.6-0.2,0.8c0,0.3,0.2,1.8,0.9,6.5l0,0.4c0.4,5.7-2.9,8.5-6.1,9.1h0C392.3,228.8,391.7,228.8,391.1,228.8z M391.1,220.3l0.9,4L391.1,220.3L391.1,220.3z M391,220L391,220L391,220C391.1,220,391,220,391,220z M389.8,142.5 c-0.1,0-0.3,0-0.3,0c-1.8,0.2-3.4,0.4-4.5,0.6c-0.2,0-0.5,0.1-0.8,0.2c0.2-0.1,0.4-0.1,0.6-0.1c2.5-0.5,5-0.7,7.3-0.4 C390.9,142.6,390.2,142.5,389.8,142.5z"/></g></g><g id="change1_1"><path d="M135.7,375c54-34.5,117.1-49.8,179.7-59.9c18-2.9,36-5.5,54.1-8c3-0.4,6.6-2.2,5.8-5.8 c-0.8-3.3-5.6-5-8.6-4.6c-64.9,9.1-130.8,18.6-191.6,44.3c-17,7.2-33.3,15.7-48.9,25.6C118.6,371.5,130.1,378.6,135.7,375 L135.7,375z" fill="#ffbc42"/></g></g></svg>