<?xml version="1.0" encoding="UTF-8" standalone="no"?><svg xmlns="http://www.w3.org/2000/svg" xmlns:xlink="http://www.w3.org/1999/xlink" fill="#f84f39" height="261.8" preserveAspectRatio="xMidYMid meet" version="1" viewBox="72.4 134.8 354.4 261.8" width="354.4" zoomAndPan="magnify"><g><g><g id="change1_4"><path d="M128.4,327.6c-1.2,0.2-2.4-0.9-3.4-3.3c-0.3-0.9-0.8-2.2-1.5-3.9s-1.5-3.9-2.5-6.5l0.2-0.2 c-5.1-12.5-12.5-31.4-22.3-56.6c-1-2.9-2.4-6.7-4.2-11.4c-1.8-4.7-3.9-10.3-6.4-16.7l-5-9c-0.5-1.6-1.1-3.6-1.8-6 c-0.8-2.4-1.7-5.2-2.8-8.4l-0.4,0.1c-0.2-0.4-0.4-1-0.6-1.8c-0.4-1.8-0.2-3.3,0.5-4.6c0.7-1.3,1.5-2,2.4-2.2 c1.2-0.2,2.2,0.5,3,2.4l10.2,24.2l10.9,28.6c1.4,3.4,3.2,8,5.3,13.8c2.2,5.8,4.8,12.8,7.8,20.9c1,3,2.3,6.5,3.9,10.2 c1.5,3.8,3.3,8,5.2,12.5l0.4,1.8c0.7-1.3,1.2-3.1,1.3-5.3l5.3-14.4c1-2.6,2-5.9,2.8-9.8c0.8-3.9,1.7-8.4,2.7-13.4 c0.2-2.4,0.6-5.6,1.2-9.4c0.6-3.8,1.2-8.3,2-13.6c-1-2.6-2.3-6.1-3.9-10.3c-1.6-4.3-3.6-9.4-6-15.4l-5.2-8.9l-5.2-15.3 c-0.5-1.7-0.5-3.4,0.1-4.9c0.5-1.5,1.4-2.4,2.6-2.7c1.2-0.2,2.2,0.5,3,2.4c1.7,4.5,3.5,8.7,5.3,12.8c1.7,4.1,3.3,8,4.8,11.6 l6.9,17.5l4.5-16.6l4.4-16.8l4.5-16.6c0.4-2.1,1.3-3.2,2.5-3.5c1.9-0.4,3.2,0.9,3.8,3.9c0.2,1.2,0.2,2.4-0.1,3.6l-2.9,12 c-0.6,2.1-1.3,5-2.2,8.6c-0.9,3.6-2,8-3.4,13.1l-5.7,26.4l12.3,31.2l8.9,22.8l0.3,1.4l1.2-4.5c0.4-1.6,1-3.7,1.8-6.1 c0.8-2.4,1.9-5.3,3-8.7c0.6-2.4,1.5-5.5,2.6-9.4c1.1-3.9,2.3-8.6,3.6-14.1c0.2-3,0.6-6.9,1.2-11.6c0.5-4.7,1.3-10.2,2.3-16.5 c0.8-3.8,2.9-12,6.3-24.4c0.7-2.3,1.5-5.2,2.6-8.8c1-3.6,2.2-7.9,3.5-12.8l2.9-11.8c0.4-2.1,1.3-3.2,2.5-3.5 c1.9-0.4,3.2,0.9,3.8,3.9c0.2,1.2,0.2,2.4-0.1,3.6c-0.2,1.6-0.6,3.4-1.1,5.3c-0.5,1.9-1.1,4.1-1.8,6.5l-5.7,21.9 c-1.2,6.6-2.6,14.2-4.3,22.8c-1.6,8.6-3.5,18.1-5.7,28.6c-0.6,3.1-1.5,6.7-2.6,10.9c-1.1,4.2-2.3,8.9-3.8,14.1 c-0.9,3-2.1,6.9-3.6,11.5c-1.5,4.7-3.1,10.1-5,16.3c-0.5,1.7-1.3,2.6-2.4,2.8c-1.5,0.3-2.7-0.7-3.6-3.1l-0.2,0 c-0.3-0.9-0.8-2.2-1.4-3.9c-0.6-1.6-1.4-3.6-2.3-6l-8.7-23.1l-8.6-22.4l-2.5,11.7c-0.9,4.1-1.8,8.3-2.8,12.4 c-1,4.2-2.1,8.3-3.2,12.5c-2.2,6.1-5.2,15.4-9,27.9C130.3,326.4,129.5,327.4,128.4,327.6z"/><path d="M128,332.6c-2.2,0-5.3-1.1-7.6-6.4l-0.1-0.3c-0.3-0.9-0.8-2.1-1.4-3.7c-0.7-1.7-1.6-4-2.6-6.7l-0.8-2.3l0.1-0.1 c-5.1-12.5-12.2-30.8-21.3-54.3c-1.1-3-2.5-6.8-4.2-11.5c-1.8-4.7-3.9-10.1-6.2-16.4l-5.3-9.7c-0.5-1.6-1.1-3.5-1.8-5.9 c-0.6-1.7-1.2-3.7-1.9-5.9l-0.8-1.4c-0.5-0.9-0.9-1.9-1.1-3.3c-0.6-2.9-0.3-5.5,0.9-7.8c1.7-3.3,4.1-4.4,5.8-4.7 c1.3-0.3,6-0.7,8.5,5.2l10.2,24.3l10.9,28.7c1.4,3.3,3.2,8,5.3,13.8c2.2,5.8,4.8,12.7,7.8,20.9c1,3.1,2.3,6.4,3.8,10.1 c0.2,0.4,0.3,0.8,0.5,1.2l2.4-6.5c1-2.4,1.8-5.5,2.6-9.1c0.8-3.8,1.7-8.2,2.6-13c0.2-2.5,0.6-5.7,1.2-9.4 c0.5-3.5,1.1-7.6,1.8-12.3c-0.9-2.4-2-5.5-3.4-9.1c-1.6-4.2-3.6-9.2-5.8-15.1l-5.4-9.5l-5.2-15.3c-0.9-3-0.8-5.6,0.1-8.1 c1.5-4.3,4.6-5.5,6.3-5.9c1.4-0.3,6-0.7,8.6,5.2c1.8,4.6,3.5,8.8,5.3,12.9c1.8,4.1,3.4,8.1,4.8,11.8l1.4,3.6l9.5-35.6 c1.1-5.2,4.4-6.7,6.3-7c2.6-0.5,5.1,0.2,6.9,2.1c1.3,1.4,2.2,3.2,2.7,5.7c0.4,2,0.3,4-0.2,5.9l-2.8,11.9c-0.6,2.2-1.3,5-2.2,8.6 c-0.9,3.7-2,8.1-3.4,13.2l-5.3,24.7l15.8,40.3l1.8-5.2c0.6-2.4,1.5-5.5,2.6-9.3c1.1-3.7,2.2-8.2,3.5-13.5c0.2-3,0.6-6.8,1.1-11.4 c0.5-4.7,1.3-10.3,2.3-16.7c0.8-4.1,2.9-12.2,6.4-24.9c0.7-2.3,1.5-5.3,2.6-8.9c1-3.6,2.2-7.8,3.4-12.7l2.9-11.8 c1.1-5.3,4.4-6.8,6.3-7.1c3.6-0.7,8.2,0.9,9.6,7.8c0.4,1.9,0.3,3.8-0.1,5.6c-0.3,1.7-0.7,3.6-1.2,5.6l-1.8,6.5l-5.7,21.7 c-1.2,6.6-2.6,14.1-4.3,22.7c-1.6,8.6-3.5,18.2-5.7,28.7c-0.7,3.3-1.6,7-2.6,11.2c-1.1,4.2-2.4,9-3.8,14.3l-3.6,11.7 c-1.5,4.7-3.1,10.1-5,16.2c-1.4,4.7-4.5,5.9-6.2,6.3c-0.5,0.1-1.6,0.2-2.7,0l-0.1,0.4l-0.1-0.4c-1.3-0.3-2.7-0.9-4-2.4l-0.8,0.2 l-1.6-4c-0.3-0.9-0.8-2.2-1.4-3.8l-13.6-35.8c-0.6,2.6-1.2,5.3-1.8,7.9c-1,4.2-2.1,8.4-3.2,12.7l-0.1,0.4 c-2.2,6.1-5.2,15.4-8.9,27.7c-1.3,4.7-4.4,6.1-6.1,6.4l0,0C129,332.6,128.5,332.6,128,332.6z M174.3,314.2L174.3,314.2 L174.3,314.2z"/></g><g id="change1_2"><path d="M235.8,299.7c-3.4,0.7-5.6-0.5-6.7-3.5c-0.7-1.8-1.3-3.9-1.9-6.1c-0.6-2.2-1.1-4.6-1.7-7.2c-2-9.6-3.4-20.3-4.3-32.1 c-0.9-11.8-1.3-24.6-1.3-38.4c0.1-8.4,0.2-15.1,0.3-20.2c0-5.1,0.1-8.4,0.2-10c0.7-10.6,2.6-18.1,5.6-22.6c1.3-2,3-3.2,5.2-3.6 c3.3-0.7,6.5,0.5,9.8,3.5c3.3,3,5.5,7.3,6.6,12.9c0.7,3.7,0.9,7.6,0.5,11.8c-0.4,3-1.3,6.9-2.9,11.5c-1.5,4.6-3.7,10.1-6.5,16.5 c-5.8,12.8-8.7,20.7-9,23.9l-0.4,12.6c0,2.6,0.1,5,0.3,7.4c0.3,2.4,0.6,4.6,1.1,6.8c0.2,1,0.4,1.9,0.6,2.7 c0.2,0.9,0.4,1.8,0.8,2.7c1.2,3.6,2.6,5.2,4.4,4.8c1.1-0.2,2.1-0.9,3-2.1l8.8-10.9c4.7-5.6,7.8-8.6,9.4-8.9 c2.9-0.6,4.8,1.9,6,7.5c2.6,13,6.3,19.4,11.1,19c0.6,0,1.1,0,1.7-0.1s1.1-0.2,1.6-0.3c7.1-1.4,11.8-4.7,14.3-9.9 c0.6-1.1,1.3-1.7,2-1.9c0.8-0.2,1.4,0.4,1.6,1.8c0.2,1,0,2.1-0.6,3.3c-1.2,2.2-3.9,5.3-8.1,9.3c-4.8,4.4-8.9,6.9-12.3,7.6 c-1.2,0.2-2.3,0.3-3.2,0l-0.4,0.1c-3-1.1-6.1-5-9.2-11.7c-2.6-6-5.2-8.5-7.7-7.6c-4.9,3.2-8.3,7.3-10.2,12.3 c-1,2.2-2.2,6.8-3.6,13.9C240.2,297.3,238.5,299.2,235.8,299.7z M226.3,187.9l3.1,29.9c2.5-2.9,4.6-6,6.3-9.2 c1.7-3.2,3.1-6.5,4.3-9.9c0.6-2,1.2-4.4,1.8-7.4c0.6-3,1.2-6.5,1.8-10.5c0.4-2.2,0.4-4.5-0.1-6.8c-0.8-3.8-2.4-6.9-5-9.2 c-2.6-2.3-4.9-2.9-6.9-1.8C227.5,165.3,225.8,173.6,226.3,187.9z"/><path d="M234,304.9c-4.5,0-8-2.5-9.6-7.1c-0.7-1.9-1.3-4.1-2-6.4c-0.6-2.3-1.2-4.7-1.7-7.5c-2-9.8-3.5-20.8-4.4-32.7 c-0.9-11.9-1.4-25-1.3-38.8c0.1-8.4,0.2-15.1,0.3-20.2c0-5.4,0.1-8.6,0.2-10.3c0.7-11.6,2.9-19.8,6.5-25c2-3,4.9-4.9,8.3-5.6 c3.3-0.7,8.5-0.4,14.2,4.7c4.1,3.7,6.8,9,8.2,15.5c0.8,4.1,1,8.6,0.5,13.3c-0.4,3.5-1.5,7.7-3.1,12.6c-1.6,4.8-3.8,10.3-6.7,16.9 c-7.7,17-8.5,21.3-8.5,22.2l-0.4,12.4c0,2.2,0.1,4.5,0.3,6.6c0.3,2.2,0.6,4.4,1,6.4l0.6,2.8c0.1,0.6,0.3,1.3,0.5,1.9l7.7-9.5 c6.8-8.2,9.7-10.1,12.3-10.7c2.8-0.6,9.4-0.6,11.8,11.4c2.7,13.6,5.8,15,5.8,15l0.3,0l0.3,0c0.2,0,0.3,0,0.4,0l1.7-0.3 c5.5-1.1,9-3.5,10.8-7.2c1.5-2.7,3.3-4.2,5.4-4.6c2.9-0.6,6.5,0.9,7.5,5.7c0.4,2,0.1,4.2-1,6.4c-1.6,3-4.6,6.4-9.1,10.7 c-5.6,5.1-10.3,8-14.7,8.8c-1.5,0.3-2.8,0.4-4.1,0.2l-0.8,0.2l-1.3-0.5c-4.5-1.6-8.3-6.1-12-14.3c-1-2.2-1.7-3.4-2.2-4.2 c-3.1,2.4-5.2,5.3-6.6,8.6c-0.5,1.2-1.6,4.2-3.3,13c-1.1,5.1-4.2,8.4-8.9,9.4l0,0C235.8,304.8,234.9,304.9,234,304.9z M228.9,273.1c0.5,3,1,6,1.6,8.8c0.5,2.6,1,4.8,1.6,6.9c0.6,2.1,1.1,4,1.7,5.7c0.1,0.2,0.2,0.4,0.2,0.5c0.1,0,0.4,0,0.8-0.1l0,0 c0.5-0.1,0.9-0.2,1.2-1.6c2-10,3.2-13.3,3.9-14.9c0.2-0.6,0.5-1.1,0.7-1.7c-0.9,0.6-2,1-3.1,1.2 C235.3,278.3,231.6,278.2,228.9,273.1z M273.2,282.5c0,0,0.1,0,0.2,0C273.3,282.5,273.2,282.5,273.2,282.5L273.2,282.5 L273.2,282.5z M291.1,267.8L291.1,267.8L291.1,267.8z M258.1,256.8c-1.1,0.9-2.9,2.8-5.9,6.5l-1.1,1.3c0.3-0.2,0.5-0.4,0.8-0.5 l1-0.5c2.5-0.9,4.8-0.7,7,0.7c-0.4-1.7-0.7-3.3-1-4.5C258.6,258.3,258.3,257.4,258.1,256.8z M257.5,255.6L257.5,255.6 L257.5,255.6z M225,224c0.1,3.1,0.1,6.2,0.3,9.3c0.3-1.2,0.7-2.7,1.4-4.8l-1.1,1.2L225,224z M231.2,187.6l1.6,15.5 c0.9-2,1.7-4,2.4-6c0.5-1.7,1.1-4,1.6-6.7c0.6-2.9,1.2-6.3,1.7-10.3c0.3-1.8,0.3-3.4,0-5.1c-0.6-2.8-1.7-4.9-3.5-6.4 c-0.7-0.6-1.2-0.9-1.4-1C233.1,168.3,230.7,172,231.2,187.6z"/></g><g id="change1_3"><path d="M301.6,371.4c-8.7,1.8-14-2.3-16.1-12.2c-3.4-16.8,8.7-39.2,36.3-67c0.6-0.4,1.3-1.2,2.1-2.3c-0.9-3.9-1.7-7.5-2.2-10.8 c-0.5-3.3-0.8-6.3-1-8.9c-0.9,1.3-1.8,2.6-2.7,3.9c-0.9,1.3-2,2.7-3.1,4c-3.2,3.8-6.4,6-9.5,6.6c-6.8,1.4-11.5-4.3-14.1-17.1 c-2.9-14.1-3.5-25.2-1.9-33.3c0.4-1.4,1.3-2.2,2.5-2.4c2.7-0.6,4.4,0.9,5.1,4.3c0.5,2.6,0.7,6.6,0.5,12c-0.3,7-0.1,12.2,0.6,15.8 c1.6,7.9,4.1,11.5,7.5,10.8c2.7-0.5,5.7-3.7,8.9-9.4c1.3-2.1,2.4-4.2,3.4-6.2c1-2,1.8-4,2.4-6l1.5-4.3l3-11.6l0.9-4 c0.4-1.4,1.2-2.2,2.3-2.4c2-0.4,3.2,0.3,3.6,2.2c0.1,0.3,0,0.7-0.2,1.3l-0.3,0.7l0.2,1.2c-1.4,5.1-2.1,11.7-2.2,20 c-0.1,8.2,0.5,18.1,1.8,29.5l10.3-5.9c1.9-0.4,3.1,0.5,3.5,2.7c0.2,1.2-0.2,2.1-1.4,2.6c-2.8,1.6-6.8,3.6-12.1,6.3 c0.4,4.6,0.6,8.6,0.8,12.1c0.1,3.5,0.2,6.5,0.1,8.9c-0.6,14-3.1,26.2-7.6,36.8C319,362,311.3,369.5,301.6,371.4z M300.7,365.7 c7.1-1.4,13-8.3,17.7-20.5c2-5.4,3.5-10.8,4.5-16.2c0.9-5.4,1.4-10.8,1.3-16.2c-0.2-1.8-0.6-3.8-1.2-5.9c-1-2.3-2.2-3.4-3.4-3.1 c-0.5,0.1-1.1,0.4-1.7,1l-0.4-0.1c-20.4,20.8-29.1,38.7-26,53.6C292.5,364.2,295.7,366.7,300.7,365.7z"/><path d="M298,376.8c-8.9,0-15.1-5.8-17.2-16.6c-3.8-18.8,8.5-42.1,37.6-71.4l0.2-0.2c-0.4-2-0.8-3.9-1.2-5.7 c-3.5,3.7-7.2,5.9-10.9,6.7c-6.8,1.4-15.9-1.1-19.9-21c-3-14.9-3.6-26.5-1.9-35.3l0.1-0.5c1-3.1,3.2-5.2,6.2-5.8 c2.8-0.6,5.5,0,7.5,1.7c1.7,1.4,2.9,3.6,3.5,6.4c0.6,3,0.8,7.3,0.6,13.1c-0.3,6.6-0.1,11.5,0.6,14.6c0.8,4,1.7,5.8,2.2,6.6 c0.8-0.6,2.5-2.2,5-6.7c1.3-2.1,2.3-4,3.3-6c0.9-1.8,1.6-3.6,2.1-5.3l1.4-4.3l3.9-15.7c1-3.1,3.2-5.2,6-5.7c3-0.6,5,0.2,6.2,1 c1.2,0.8,2.7,2.3,3.3,5.1c0.3,1.2,0.1,2.5-0.2,3.3l0.2,1l-0.3,1.1c-1.3,4.6-1.9,10.9-2,18.7c-0.1,6.1,0.3,13.3,1,21.4l4.4-2.5 l0.8-0.2c2.3-0.5,4.6,0,6.3,1.3c1.6,1.2,2.6,3,3.1,5.2c0.7,3.4-0.9,6.5-4,8c-2.3,1.3-5.4,2.9-9.2,4.8c0.2,3.3,0.4,6.3,0.5,9 c0.1,3.6,0.2,6.7,0.1,9.2c-0.6,14.6-3.3,27.5-8,38.6c-6.4,14.4-15.4,22.9-26.6,25.2l0,0C301,376.6,299.5,376.8,298,376.8z M318.7,310.4c-17.5,18.5-25.1,34.2-22.5,46.9c0.5,2.5,1.3,3.3,1.5,3.4c0.4,0.3,1.3,0.3,2,0.1h0c6.6-1.3,11.3-10.2,14-17.5 c1.9-5,3.3-10.2,4.2-15.3c0.9-5,1.3-10,1.2-15C319.1,312.3,318.9,311.4,318.7,310.4z M322.1,299.1c1.7,0.6,3.7,2.1,5.2,5.4 c0-0.3,0-0.5,0-0.8c-0.1-2.7-0.3-5.8-0.5-9.3c-0.5,0.6-1.1,1.1-1.6,1.5C324.1,297,323.1,298.1,322.1,299.1z M301.3,278.9 c0.9,0.8,2,1.2,3.2,1c0.2,0,0.3-0.1,0.5-0.1c0,0,0,0,0,0C303.7,279.7,302.5,279.5,301.3,278.9z"/></g><g id="change1_1"><path d="M358.8,236.8c-2.7,0.6-4.4-0.9-5.1-4.3c-0.1-0.4-0.2-0.9-0.3-1.4s-0.2-1.2-0.2-1.9c-0.1-2-0.1-3.7,0-5.2 c0.1-1.5,0.2-2.5,0.2-3.1c0.5-3.9,1.4-6.8,2.8-8.7c1.4-1.9,3-3.5,4.8-4.8c1.8-1.3,3.4-3,4.8-5.1c2.2-2.3,4.1-4.6,5.7-6.9 c1.6-2.3,2.9-4.5,4.1-6.6c1.3-2.8,2.2-5.4,2.9-7.7c0.7-2.3,0.8-4.6,0.3-6.7c-1.8-8.8-5-15.4-9.7-19.6c-4.7-4.2-10.3-5.7-16.8-4.3 c-2.6,0.5-5.3,4.2-8.2,11c-0.1,0.7-0.4,2.1-0.7,4c-0.3,1.9-1,4.3-1.9,7.2c-0.7,1-1.4,1.6-2.2,1.7c-1.4,0.3-2.6-0.3-3.7-1.7 c-1.1-1.4-1.6-2.9-1.5-4.5c0.5-6.6,1.8-11.8,4-15.7c4.1-7,8.2-11,12.4-11.9c1.5-0.3,3.4-0.5,5.7-0.7c2.3-0.2,5.7,0.5,10.3,2.2 c9.9,3.4,16.6,13.9,20.2,31.5c0.8,5.8-1,12.9-5.2,21.2c-0.9,1.7-2.4,3.9-4.4,6.6c-2,2.7-4.5,5.7-7.5,9.2 c-0.8,0.7-1.9,1.8-3.2,3.2c-1.3,1.4-2.7,3.2-4.4,5.6c-0.5,1-0.8,1.8-1,2.4c-0.1,0.7-0.3,1.2-0.3,1.7c0,0.6,0.3,3.3,1,8.3 C362,234.7,361,236.4,358.8,236.8z M363.3,278.1c-3.9,0.8-6.6-2.4-7.9-9.4l0,0.2c-0.4-2.7-0.2-5.4,0.5-7.9c0.8-2.6,1.9-4,3.4-4.3 c3.9-0.8,6.4,2.2,7.4,9.1C367.8,273.3,366.6,277.4,363.3,278.1z"/><path d="M362.2,283.2c-1.9,0-3.7-0.6-5.3-1.6c-3.1-2.1-5.1-6-6.2-12l0,0c-0.5-3.4-0.3-6.8,0.7-10c1.6-5.5,4.8-7.3,7.2-7.7 c2.8-0.6,5.4-0.1,7.6,1.5c3,2.1,4.9,6,5.7,11.8c1.4,10.6-1.1,16.6-7.4,17.9l0,0C363.6,283.1,362.9,283.2,362.2,283.2z M362.3,273.3C362.3,273.3,362.4,273.3,362.3,273.3L362.3,273.3C362.3,273.3,362.3,273.3,362.3,273.3z M360.4,268.1 c0.5,2.6,1.1,4,1.5,4.7c0.2-1,0.3-2.9-0.1-6.4c-0.3-2.1-0.7-3.4-1-4.1c0,0,0,0.1,0,0.1C360.2,264.2,360.1,266.1,360.4,268.1 L360.4,268.1z M360.3,261.3L360.3,261.3L360.3,261.3z M361.4,261L361.4,261L361.4,261z M357.8,241.9c-3.7,0-7.7-2.1-9-8.3 l-0.3-1.4c-0.2-0.9-0.3-1.8-0.3-2.9c-0.1-1.9-0.1-3.8,0-5.6c0.1-1.4,0.2-2.4,0.2-3l0-0.4c0.6-4.8,1.8-8.4,3.7-11 c1.7-2.3,3.6-4.3,5.9-5.9c1.3-0.9,2.5-2.2,3.6-3.8l0.6-0.7c2-2.1,3.8-4.2,5.2-6.2c1.4-2.1,2.7-4.1,3.7-6c1.1-2.5,2-4.8,2.6-6.8 c0.4-1.6,0.5-3,0.2-4.4c-1.6-7.7-4.3-13.4-8.2-16.9c-3.5-3.2-7.5-4.2-12.5-3.2h0c0.1,0-1.6,1.1-4.4,7.6c-0.1,0.8-0.3,1.9-0.6,3.4 c-0.4,2.2-1.1,4.8-2.1,7.9l-0.2,0.6l-0.4,0.5c-1.7,2.6-3.9,3.5-5.3,3.8c-1.9,0.4-5.5,0.4-8.6-3.4c-1.9-2.4-2.8-5.1-2.6-7.9 c0.6-7.5,2.1-13.3,4.7-17.8c4.9-8.4,10.1-13.1,15.8-14.3c1.7-0.3,3.8-0.6,6.3-0.8c3.1-0.2,7,0.5,12.3,2.4 c11.6,3.9,19.4,15.8,23.4,35.2l0.1,0.3c0.9,6.9-1,14.7-5.7,24.1c-1.1,2.1-2.7,4.4-4.8,7.3c-2.1,2.7-4.6,5.8-7.7,9.4l-0.5,0.5 c-0.5,0.4-1.4,1.3-2.8,2.8c-1.1,1.2-2.3,2.8-3.8,4.8c-0.3,0.6-0.4,0.9-0.4,0.9c-0.1,0.4-0.1,0.6-0.2,0.9c0,0.3,0.2,2,1,7.3l0,0.4 c0.4,6.4-3.4,9.5-7,10.2l0,0C359.2,241.8,358.5,241.9,357.8,241.9z M357.8,232.3l1,4.5l-0.9-4.5L357.8,232.3z M356.8,232.9 L356.8,232.9L356.8,232.9z M357.8,232C357.7,232,357.7,232,357.8,232L357.8,232C357.8,232,357.8,232,357.8,232z M357,144.9 c-0.1,0-0.3,0-0.3,0c-2.1,0.2-3.8,0.4-5.1,0.6c-0.2,0.1-0.5,0.1-0.9,0.3c0.2-0.1,0.4-0.1,0.7-0.2c2.9-0.6,5.6-0.7,8.2-0.4 C358.3,145,357.5,144.9,357,144.9z"/></g></g><g id="change1_5"><path d="M156.8,392.6c60.7-38.8,131.6-55.9,201.9-67.3c20.2-3.3,40.5-6.1,60.7-9c3.3-0.5,7.4-2.4,6.5-6.5 c-0.8-3.8-6.3-5.6-9.7-5.1c-73,10.2-146.9,20.9-215.3,49.8c-19.1,8-37.5,17.6-54.9,28.7C137.4,388.7,150.4,396.6,156.8,392.6 L156.8,392.6z"/></g></g></svg>